<?xml version="1.0" encoding="utf-8" ?>
<svg baseProfile="full" height="4925" version="1.1" width="100" xmlns="http://www.w3.org/2000/svg" xmlns:ev="http://www.w3.org/2001/xml-events" xmlns:xlink="http://www.w3.org/1999/xlink"><defs /><g stroke="black" stroke-linecap="round" stroke-width="0.25"><g fill="#7CA620"><rect height="25" width="25" x="0" y="50" /><rect height="25" width="25" x="0" y="75" /><rect height="25" width="25" x="25" y="75" /><rect height="25" width="25" x="0" y="100" /><rect height="25" width="25" x="25" y="100" /></g><path d="M 0 50 l 25 0 M 25 75 l 25 0 M 0 125 l 25 0 M 25 125 l 25 0 M 0 50 l 0 25 M 25 50 l 0 25 M 0 75 l 0 25 M 50 75 l 0 25 M 0 100 l 0 25 M 50 100 l 0 25" stroke-width="3" /></g><text fill="black" font-family="Arial" font-size="15px" font-weight="bold" stroke="none" x="0" y="25">51 B=2, T=2</text><g stroke="black" stroke-linecap="round" stroke-width="0.25"><g fill="#29C88D"><rect height="25" width="25" x="25" y="175" /><rect height="25" width="25" x="25" y="200" /><rect height="25" width="25" x="0" y="225" /><rect height="25" width="25" x="25" y="225" /><rect height="25" width="25" x="50" y="225" /><rect height="25" width="25" x="25" y="250" /></g><path d="M 25 175 l 25 0 M 0 225 l 25 0 M 50 225 l 25 0 M 0 250 l 25 0 M 50 250 l 25 0 M 25 275 l 25 0 M 25 175 l 0 25 M 50 175 l 0 25 M 25 200 l 0 25 M 50 200 l 0 25 M 0 225 l 0 25 M 75 225 l 0 25 M 25 250 l 0 25 M 50 250 l 0 25" stroke-width="3" /></g><text fill="black" font-family="Arial" font-size="15px" font-weight="bold" stroke="none" x="0" y="175">60 B=0, T=3</text><g stroke="black" stroke-linecap="round" stroke-width="0.25"><g fill="#786ED6"><rect height="25" width="25" x="0" y="325" /><rect height="25" width="25" x="25" y="325" /><rect height="25" width="25" x="0" y="350" /><rect height="25" width="25" x="0" y="375" /><rect height="25" width="25" x="0" y="400" /><rect height="25" width="25" x="25" y="400" /></g><path d="M 0 325 l 25 0 M 25 325 l 25 0 M 25 350 l 25 0 M 25 400 l 25 0 M 0 425 l 25 0 M 25 425 l 25 0 M 0 325 l 0 25 M 50 325 l 0 25 M 0 350 l 0 25 M 25 350 l 0 25 M 0 375 l 0 25 M 25 375 l 0 25 M 0 400 l 0 25 M 50 400 l 0 25" stroke-width="3" /></g><text fill="black" font-family="Arial" font-size="15px" font-weight="bold" stroke="none" x="0" y="325">64 B=1, T=5</text><g stroke="black" stroke-linecap="round" stroke-width="0.25"><g fill="#93E32E"><rect height="25" width="25" x="25" y="500" /><rect height="25" width="25" x="0" y="525" /><rect height="25" width="25" x="25" y="525" /><rect height="25" width="25" x="50" y="525" /><rect height="25" width="25" x="25" y="550" /></g><path d="M 25 500 l 25 0 M 0 525 l 25 0 M 50 525 l 25 0 M 0 550 l 25 0 M 50 550 l 25 0 M 25 575 l 25 0 M 25 500 l 0 25 M 50 500 l 0 25 M 0 525 l 0 25 M 75 525 l 0 25 M 25 550 l 0 25 M 50 550 l 0 25" stroke-width="3" /></g><text fill="black" font-family="Arial" font-size="15px" font-weight="bold" stroke="none" x="0" y="475">57 B=5, T=4</text><g stroke="black" stroke-linecap="round" stroke-width="0.25"><g fill="#6F4790"><rect height="25" width="25" x="0" y="675" /><rect height="25" width="25" x="0" y="700" /><rect height="25" width="25" x="25" y="700" /></g><path d="M 0 675 l 25 0 M 25 700 l 25 0 M 0 725 l 25 0 M 25 725 l 25 0 M 0 675 l 0 25 M 25 675 l 0 25 M 0 700 l 0 25 M 50 700 l 0 25" stroke-width="3" /></g><text fill="black" font-family="Arial" font-size="15px" font-weight="bold" stroke="none" x="0" y="625">32 B=1, T=3</text><g stroke="black" stroke-linecap="round" stroke-width="0.25"><g fill="#8CE6FC"><rect height="25" width="25" x="0" y="775" /><rect height="25" width="25" x="0" y="800" /><rect height="25" width="25" x="25" y="800" /><rect height="25" width="25" x="0" y="825" /><rect height="25" width="25" x="25" y="825" /><rect height="25" width="25" x="0" y="850" /></g><path d="M 0 775 l 25 0 M 25 800 l 25 0 M 25 850 l 25 0 M 0 875 l 25 0 M 0 775 l 0 25 M 25 775 l 0 25 M 0 800 l 0 25 M 50 800 l 0 25 M 0 825 l 0 25 M 50 825 l 0 25 M 0 850 l 0 25 M 25 850 l 0 25" stroke-width="3" /></g><text fill="black" font-family="Arial" font-size="15px" font-weight="bold" stroke="none" x="0" y="775">65 B=7, T=4</text><g stroke="black" stroke-linecap="round" stroke-width="0.25"><g fill="#B62AA6"><rect height="25" width="25" x="25" y="950" /><rect height="25" width="25" x="50" y="950" /><rect height="25" width="25" x="0" y="975" /><rect height="25" width="25" x="25" y="975" /><rect height="25" width="25" x="25" y="1000" /><rect height="25" width="25" x="50" y="1000" /></g><path d="M 25 950 l 25 0 M 50 950 l 25 0 M 0 975 l 25 0 M 50 975 l 25 0 M 0 1000 l 25 0 M 50 1000 l 25 0 M 25 1025 l 25 0 M 50 1025 l 25 0 M 25 950 l 0 25 M 75 950 l 0 25 M 0 975 l 0 25 M 50 975 l 0 25 M 25 1000 l 0 25 M 75 1000 l 0 25" stroke-width="3" /></g><text fill="black" font-family="Arial" font-size="15px" font-weight="bold" stroke="none" x="0" y="925">66 B=3, T=6</text><g stroke="black" stroke-linecap="round" stroke-width="0.25"><g fill="#3FAA68"><rect height="25" width="25" x="0" y="1075" /><rect height="25" width="25" x="0" y="1100" /><rect height="25" width="25" x="0" y="1125" /><rect height="25" width="25" x="0" y="1150" /><rect height="25" width="25" x="25" y="1150" /></g><path d="M 0 1075 l 25 0 M 25 1150 l 25 0 M 0 1175 l 25 0 M 25 1175 l 25 0 M 0 1075 l 0 25 M 25 1075 l 0 25 M 0 1100 l 0 25 M 25 1100 l 0 25 M 0 1125 l 0 25 M 25 1125 l 0 25 M 0 1150 l 0 25 M 50 1150 l 0 25" stroke-width="3" /></g><text fill="black" font-family="Arial" font-size="15px" font-weight="bold" stroke="none" x="0" y="1075">56 B=10, T=3</text><g stroke="black" stroke-linecap="round" stroke-width="0.25"><g fill="#00FCAA"><rect height="25" width="25" x="0" y="1250" /><rect height="25" width="25" x="0" y="1275" /><rect height="25" width="25" x="25" y="1275" /><rect height="25" width="25" x="25" y="1300" /></g><path d="M 0 1250 l 25 0 M 25 1275 l 25 0 M 0 1300 l 25 0 M 25 1325 l 25 0 M 0 1250 l 0 25 M 25 1250 l 0 25 M 0 1275 l 0 25 M 50 1275 l 0 25 M 25 1300 l 0 25 M 50 1300 l 0 25" stroke-width="3" /></g><text fill="black" font-family="Arial" font-size="15px" font-weight="bold" stroke="none" x="0" y="1225">47 B=7, T=6</text><g stroke="black" stroke-linecap="round" stroke-width="0.25"><g fill="#4A7017"><rect height="25" width="25" x="25" y="1375" /><rect height="25" width="25" x="0" y="1400" /><rect height="25" width="25" x="25" y="1400" /><rect height="25" width="25" x="50" y="1400" /><rect height="25" width="25" x="0" y="1425" /><rect height="25" width="25" x="25" y="1425" /><rect height="25" width="25" x="50" y="1425" /><rect height="25" width="25" x="25" y="1450" /></g><path d="M 25 1375 l 25 0 M 0 1400 l 25 0 M 50 1400 l 25 0 M 0 1450 l 25 0 M 50 1450 l 25 0 M 25 1475 l 25 0 M 25 1375 l 0 25 M 50 1375 l 0 25 M 0 1400 l 0 25 M 75 1400 l 0 25 M 0 1425 l 0 25 M 75 1425 l 0 25 M 25 1450 l 0 25 M 50 1450 l 0 25" stroke-width="3" /></g><text fill="black" font-family="Arial" font-size="15px" font-weight="bold" stroke="none" x="0" y="1375">81 B=5, T=3</text><g stroke="black" stroke-linecap="round" stroke-width="0.25"><g fill="#8A3B70"><rect height="25" width="25" x="0" y="1550" /><rect height="25" width="25" x="25" y="1550" /><rect height="25" width="25" x="25" y="1575" /><rect height="25" width="25" x="50" y="1575" /><rect height="25" width="25" x="25" y="1600" /><rect height="25" width="25" x="50" y="1600" /></g><path d="M 0 1550 l 25 0 M 25 1550 l 25 0 M 0 1575 l 25 0 M 50 1575 l 25 0 M 25 1625 l 25 0 M 50 1625 l 25 0 M 0 1550 l 0 25 M 50 1550 l 0 25 M 25 1575 l 0 25 M 75 1575 l 0 25 M 25 1600 l 0 25 M 75 1600 l 0 25" stroke-width="3" /></g><text fill="black" font-family="Arial" font-size="15px" font-weight="bold" stroke="none" x="0" y="1525">69 B=8, T=6</text><g stroke="black" stroke-linecap="round" stroke-width="0.25"><g fill="#424C13"><rect height="25" width="25" x="0" y="1675" /><rect height="25" width="25" x="25" y="1675" /><rect height="25" width="25" x="25" y="1700" /><rect height="25" width="25" x="25" y="1725" /><rect height="25" width="25" x="25" y="1750" /><rect height="25" width="25" x="50" y="1750" /></g><path d="M 0 1675 l 25 0 M 25 1675 l 25 0 M 0 1700 l 25 0 M 50 1750 l 25 0 M 25 1775 l 25 0 M 50 1775 l 25 0 M 0 1675 l 0 25 M 50 1675 l 0 25 M 25 1700 l 0 25 M 50 1700 l 0 25 M 25 1725 l 0 25 M 50 1725 l 0 25 M 25 1750 l 0 25 M 75 1750 l 0 25" stroke-width="3" /></g><text fill="black" font-family="Arial" font-size="15px" font-weight="bold" stroke="none" x="0" y="1675">63 B=1, T=2</text><g stroke="black" stroke-linecap="round" stroke-width="0.25"><g fill="#379A95"><rect height="25" width="25" x="0" y="1825" /><rect height="25" width="25" x="0" y="1850" /><rect height="25" width="25" x="0" y="1875" /><rect height="25" width="25" x="25" y="1875" /><rect height="25" width="25" x="25" y="1900" /></g><path d="M 0 1825 l 25 0 M 25 1875 l 25 0 M 0 1900 l 25 0 M 25 1925 l 25 0 M 0 1825 l 0 25 M 25 1825 l 0 25 M 0 1850 l 0 25 M 25 1850 l 0 25 M 0 1875 l 0 25 M 50 1875 l 0 25 M 25 1900 l 0 25 M 50 1900 l 0 25" stroke-width="3" /></g><text fill="black" font-family="Arial" font-size="15px" font-weight="bold" stroke="none" x="0" y="1825">55 B=2, T=3</text><g stroke="black" stroke-linecap="round" stroke-width="0.25"><g fill="#E2851F"><rect height="25" width="25" x="0" y="2025" /><rect height="25" width="25" x="25" y="2025" /><rect height="25" width="25" x="0" y="2050" /><rect height="25" width="25" x="25" y="2050" /></g><path d="M 0 2025 l 25 0 M 25 2025 l 25 0 M 0 2075 l 25 0 M 25 2075 l 25 0 M 0 2025 l 0 25 M 50 2025 l 0 25 M 0 2050 l 0 25 M 50 2050 l 0 25" stroke-width="3" /></g><text fill="black" font-family="Arial" font-size="15px" font-weight="bold" stroke="none" x="0" y="1975">45 B=6, T=5</text><g stroke="black" stroke-linecap="round" stroke-width="0.25"><g fill="#48E52E"><rect height="25" width="25" x="0" y="2100" /><rect height="25" width="25" x="0" y="2125" /><rect height="25" width="25" x="0" y="2150" /><rect height="25" width="25" x="0" y="2175" /><rect height="25" width="25" x="0" y="2200" /></g><path d="M 0 2100 l 25 0 M 0 2225 l 25 0 M 0 2100 l 0 25 M 25 2100 l 0 25 M 0 2125 l 0 25 M 25 2125 l 0 25 M 0 2150 l 0 25 M 25 2150 l 0 25 M 0 2175 l 0 25 M 25 2175 l 0 25 M 0 2200 l 0 25 M 25 2200 l 0 25" stroke-width="3" /></g><text fill="black" font-family="Arial" font-size="15px" font-weight="bold" stroke="none" x="0" y="2125">53 B=7, T=1</text><g stroke="black" stroke-linecap="round" stroke-width="0.25"><g fill="#BE57AA"><rect height="25" width="25" x="0" y="2300" /><rect height="25" width="25" x="50" y="2300" /><rect height="25" width="25" x="0" y="2325" /><rect height="25" width="25" x="25" y="2325" /><rect height="25" width="25" x="50" y="2325" /><rect height="25" width="25" x="0" y="2350" /><rect height="25" width="25" x="50" y="2350" /></g><path d="M 0 2300 l 25 0 M 50 2300 l 25 0 M 25 2325 l 25 0 M 25 2350 l 25 0 M 0 2375 l 25 0 M 50 2375 l 25 0 M 0 2300 l 0 25 M 25 2300 l 0 25 M 50 2300 l 0 25 M 75 2300 l 0 25 M 0 2325 l 0 25 M 75 2325 l 0 25 M 0 2350 l 0 25 M 25 2350 l 0 25 M 50 2350 l 0 25 M 75 2350 l 0 25" stroke-width="3" /></g><text fill="black" font-family="Arial" font-size="15px" font-weight="bold" stroke="none" x="0" y="2275">71 B=2, T=3</text><g stroke="black" stroke-linecap="round" stroke-width="0.25"><g fill="#25A9F1"><rect height="25" width="25" x="0" y="2450" /><rect height="25" width="25" x="0" y="2475" /><rect height="25" width="25" x="25" y="2475" /><rect height="25" width="25" x="25" y="2500" /></g><path d="M 0 2450 l 25 0 M 25 2475 l 25 0 M 0 2500 l 25 0 M 25 2525 l 25 0 M 0 2450 l 0 25 M 25 2450 l 0 25 M 0 2475 l 0 25 M 50 2475 l 0 25 M 25 2500 l 0 25 M 50 2500 l 0 25" stroke-width="3" /></g><text fill="black" font-family="Arial" font-size="15px" font-weight="bold" stroke="none" x="0" y="2425">42 B=3, T=2</text><g stroke="black" stroke-linecap="round" stroke-width="0.25"><g fill="#29A3FA"><rect height="25" width="25" x="0" y="2575" /><rect height="25" width="25" x="0" y="2600" /><rect height="25" width="25" x="0" y="2625" /><rect height="25" width="25" x="25" y="2625" /><rect height="25" width="25" x="0" y="2650" /></g><path d="M 0 2575 l 25 0 M 25 2625 l 25 0 M 25 2650 l 25 0 M 0 2675 l 25 0 M 0 2575 l 0 25 M 25 2575 l 0 25 M 0 2600 l 0 25 M 25 2600 l 0 25 M 0 2625 l 0 25 M 50 2625 l 0 25 M 0 2650 l 0 25 M 25 2650 l 0 25" stroke-width="3" /></g><text fill="black" font-family="Arial" font-size="15px" font-weight="bold" stroke="none" x="0" y="2575">54 B=3, T=4</text><g stroke="black" stroke-linecap="round" stroke-width="0.25"><g fill="#617C08"><rect height="25" width="25" x="0" y="2725" /><rect height="25" width="25" x="0" y="2750" /><rect height="25" width="25" x="0" y="2775" /><rect height="25" width="25" x="25" y="2775" /><rect height="25" width="25" x="0" y="2800" /><rect height="25" width="25" x="25" y="2800" /></g><path d="M 0 2725 l 25 0 M 25 2775 l 25 0 M 0 2825 l 25 0 M 25 2825 l 25 0 M 0 2725 l 0 25 M 25 2725 l 0 25 M 0 2750 l 0 25 M 25 2750 l 0 25 M 0 2775 l 0 25 M 50 2775 l 0 25 M 0 2800 l 0 25 M 50 2800 l 0 25" stroke-width="3" /></g><text fill="black" font-family="Arial" font-size="15px" font-weight="bold" stroke="none" x="0" y="2725">68 B=10, T=5</text><g stroke="black" stroke-linecap="round" stroke-width="0.25"><g fill="#F3232D"><rect height="25" width="25" x="25" y="2875" /><rect height="25" width="25" x="0" y="2900" /><rect height="25" width="25" x="25" y="2900" /><rect height="25" width="25" x="25" y="2925" /><rect height="25" width="25" x="50" y="2925" /><rect height="25" width="25" x="25" y="2950" /></g><path d="M 25 2875 l 25 0 M 0 2900 l 25 0 M 0 2925 l 25 0 M 50 2925 l 25 0 M 50 2950 l 25 0 M 25 2975 l 25 0 M 25 2875 l 0 25 M 50 2875 l 0 25 M 0 2900 l 0 25 M 50 2900 l 0 25 M 25 2925 l 0 25 M 75 2925 l 0 25 M 25 2950 l 0 25 M 50 2950 l 0 25" stroke-width="3" /></g><text fill="black" font-family="Arial" font-size="15px" font-weight="bold" stroke="none" x="0" y="2875">62 B=2, T=1</text><g stroke="black" stroke-linecap="round" stroke-width="0.25"><g fill="#9BF4B7"><rect height="25" width="25" x="0" y="3050" /><rect height="25" width="25" x="0" y="3075" /><rect height="25" width="25" x="0" y="3100" /></g><path d="M 0 3050 l 25 0 M 0 3125 l 25 0 M 0 3050 l 0 25 M 25 3050 l 0 25 M 0 3075 l 0 25 M 25 3075 l 0 25 M 0 3100 l 0 25 M 25 3100 l 0 25" stroke-width="3" /></g><text fill="black" font-family="Arial" font-size="15px" font-weight="bold" stroke="none" x="0" y="3025">31 B=2, T=2</text><g stroke="black" stroke-linecap="round" stroke-width="0.25"><g fill="#61717A"><rect height="25" width="25" x="0" y="3200" /><rect height="25" width="25" x="25" y="3200" /><rect height="25" width="25" x="0" y="3225" /><rect height="25" width="25" x="0" y="3250" /><rect height="25" width="25" x="25" y="3250" /></g><path d="M 0 3200 l 25 0 M 25 3200 l 25 0 M 25 3225 l 25 0 M 25 3250 l 25 0 M 0 3275 l 25 0 M 25 3275 l 25 0 M 0 3200 l 0 25 M 50 3200 l 0 25 M 0 3225 l 0 25 M 25 3225 l 0 25 M 0 3250 l 0 25 M 50 3250 l 0 25" stroke-width="3" /></g><text fill="black" font-family="Arial" font-size="15px" font-weight="bold" stroke="none" x="0" y="3175">52 B=1, T=2</text><g stroke="black" stroke-linecap="round" stroke-width="0.25"><g fill="#33B5DE"><rect height="25" width="25" x="0" y="3325" /><rect height="25" width="25" x="0" y="3350" /><rect height="25" width="25" x="0" y="3375" /><rect height="25" width="25" x="0" y="3400" /></g><path d="M 0 3325 l 25 0 M 0 3425 l 25 0 M 0 3325 l 0 25 M 25 3325 l 0 25 M 0 3350 l 0 25 M 25 3350 l 0 25 M 0 3375 l 0 25 M 25 3375 l 0 25 M 0 3400 l 0 25 M 25 3400 l 0 25" stroke-width="3" /></g><text fill="black" font-family="Arial" font-size="15px" font-weight="bold" stroke="none" x="0" y="3325">43 B=3, T=3</text><g stroke="black" stroke-linecap="round" stroke-width="0.25"><g fill="#4B9E32"><rect height="25" width="25" x="0" y="3500" /><rect height="25" width="25" x="0" y="3525" /><rect height="25" width="25" x="25" y="3525" /><rect height="25" width="25" x="0" y="3550" /></g><path d="M 0 3500 l 25 0 M 25 3525 l 25 0 M 25 3550 l 25 0 M 0 3575 l 25 0 M 0 3500 l 0 25 M 25 3500 l 0 25 M 0 3525 l 0 25 M 50 3525 l 0 25 M 0 3550 l 0 25 M 25 3550 l 0 25" stroke-width="3" /></g><text fill="black" font-family="Arial" font-size="15px" font-weight="bold" stroke="none" x="0" y="3475">41 B=2, T=2</text><g stroke="black" stroke-linecap="round" stroke-width="0.25"><g fill="#C5A27B"><rect height="25" width="25" x="25" y="3650" /><rect height="25" width="25" x="25" y="3675" /><rect height="25" width="25" x="0" y="3700" /><rect height="25" width="25" x="25" y="3700" /><rect height="25" width="25" x="50" y="3700" /></g><path d="M 25 3650 l 25 0 M 0 3700 l 25 0 M 50 3700 l 25 0 M 0 3725 l 25 0 M 25 3725 l 25 0 M 50 3725 l 25 0 M 25 3650 l 0 25 M 50 3650 l 0 25 M 25 3675 l 0 25 M 50 3675 l 0 25 M 0 3700 l 0 25 M 75 3700 l 0 25" stroke-width="3" /></g><text fill="black" font-family="Arial" font-size="15px" font-weight="bold" stroke="none" x="0" y="3625">58 B=5, T=5</text><g stroke="black" stroke-linecap="round" stroke-width="0.25"><g fill="#5F1085"><rect height="25" width="25" x="0" y="3775" /><rect height="25" width="25" x="0" y="3800" /><rect height="25" width="25" x="25" y="3800" /><rect height="25" width="25" x="0" y="3825" /><rect height="25" width="25" x="25" y="3825" /><rect height="25" width="25" x="25" y="3850" /></g><path d="M 0 3775 l 25 0 M 25 3800 l 25 0 M 0 3850 l 25 0 M 25 3875 l 25 0 M 0 3775 l 0 25 M 25 3775 l 0 25 M 0 3800 l 0 25 M 50 3800 l 0 25 M 0 3825 l 0 25 M 50 3825 l 0 25 M 25 3850 l 0 25 M 50 3850 l 0 25" stroke-width="3" /></g><text fill="black" font-family="Arial" font-size="15px" font-weight="bold" stroke="none" x="0" y="3775">61 B=4, T=2</text><g stroke="black" stroke-linecap="round" stroke-width="0.25"><g fill="#945E60"><rect height="25" width="25" x="0" y="3950" /><rect height="25" width="25" x="25" y="3950" /><rect height="25" width="25" x="25" y="3975" /><rect height="25" width="25" x="50" y="3975" /><rect height="25" width="25" x="50" y="4000" /></g><path d="M 0 3950 l 25 0 M 25 3950 l 25 0 M 0 3975 l 25 0 M 50 3975 l 25 0 M 25 4000 l 25 0 M 50 4025 l 25 0 M 0 3950 l 0 25 M 50 3950 l 0 25 M 25 3975 l 0 25 M 75 3975 l 0 25 M 50 4000 l 0 25 M 75 4000 l 0 25" stroke-width="3" /></g><text fill="black" font-family="Arial" font-size="15px" font-weight="bold" stroke="none" x="0" y="3925">59 B=10, T=4</text><g stroke="black" stroke-linecap="round" stroke-width="0.25"><g fill="#072FCC"><rect height="25" width="25" x="0" y="4100" /><rect height="25" width="25" x="0" y="4125" /><rect height="25" width="25" x="0" y="4150" /><rect height="25" width="25" x="25" y="4150" /></g><path d="M 0 4100 l 25 0 M 25 4150 l 25 0 M 0 4175 l 25 0 M 25 4175 l 25 0 M 0 4100 l 0 25 M 25 4100 l 0 25 M 0 4125 l 0 25 M 25 4125 l 0 25 M 0 4150 l 0 25 M 50 4150 l 0 25" stroke-width="3" /></g><text fill="black" font-family="Arial" font-size="15px" font-weight="bold" stroke="none" x="0" y="4075">46 B=4, T=6</text><g stroke="black" stroke-linecap="round" stroke-width="0.25"><g fill="#A168F4"><rect height="25" width="25" x="0" y="4250" /><rect height="25" width="25" x="0" y="4275" /><rect height="25" width="25" x="0" y="4300" /><rect height="25" width="25" x="25" y="4300" /></g><path d="M 0 4250 l 25 0 M 25 4300 l 25 0 M 0 4325 l 25 0 M 25 4325 l 25 0 M 0 4250 l 0 25 M 25 4250 l 0 25 M 0 4275 l 0 25 M 25 4275 l 0 25 M 0 4300 l 0 25 M 50 4300 l 0 25" stroke-width="3" /></g><text fill="black" font-family="Arial" font-size="15px" font-weight="bold" stroke="none" x="0" y="4225">44 B=4, T=2</text><g stroke="black" stroke-linecap="round" stroke-width="0.25"><g fill="#DA1F33"><rect height="25" width="25" x="25" y="4350" /><rect height="25" width="25" x="25" y="4375" /><rect height="25" width="25" x="0" y="4400" /><rect height="25" width="25" x="25" y="4400" /><rect height="25" width="25" x="50" y="4400" /><rect height="25" width="25" x="25" y="4425" /><rect height="25" width="25" x="25" y="4450" /></g><path d="M 25 4350 l 25 0 M 0 4400 l 25 0 M 50 4400 l 25 0 M 0 4425 l 25 0 M 50 4425 l 25 0 M 25 4475 l 25 0 M 25 4350 l 0 25 M 50 4350 l 0 25 M 25 4375 l 0 25 M 50 4375 l 0 25 M 0 4400 l 0 25 M 75 4400 l 0 25 M 25 4425 l 0 25 M 50 4425 l 0 25 M 25 4450 l 0 25 M 50 4450 l 0 25" stroke-width="3" /></g><text fill="black" font-family="Arial" font-size="15px" font-weight="bold" stroke="none" x="0" y="4375">72 B=1, T=4</text><g stroke="black" stroke-linecap="round" stroke-width="0.25"><g fill="#3BF9AB"><rect height="25" width="25" x="25" y="4525" /><rect height="25" width="25" x="25" y="4550" /><rect height="25" width="25" x="25" y="4575" /><rect height="25" width="25" x="0" y="4600" /><rect height="25" width="25" x="25" y="4600" /><rect height="25" width="25" x="50" y="4600" /></g><path d="M 25 4525 l 25 0 M 0 4600 l 25 0 M 50 4600 l 25 0 M 0 4625 l 25 0 M 25 4625 l 25 0 M 50 4625 l 25 0 M 25 4525 l 0 25 M 50 4525 l 0 25 M 25 4550 l 0 25 M 50 4550 l 0 25 M 25 4575 l 0 25 M 50 4575 l 0 25 M 0 4600 l 0 25 M 75 4600 l 0 25" stroke-width="3" /></g><text fill="black" font-family="Arial" font-size="15px" font-weight="bold" stroke="none" x="0" y="4525">67 B=7, T=2</text><g stroke="black" stroke-linecap="round" stroke-width="0.25"><g fill="#473080"><rect height="25" width="25" x="0" y="4725" /><rect height="25" width="25" x="0" y="4750" /><rect height="25" width="25" x="25" y="4750" /></g><path d="M 0 4725 l 25 0 M 25 4750 l 25 0 M 0 4775 l 25 0 M 25 4775 l 25 0 M 0 4725 l 0 25 M 25 4725 l 0 25 M 0 4750 l 0 25 M 50 4750 l 0 25" stroke-width="3" /></g><text fill="black" font-family="Arial" font-size="15px" font-weight="bold" stroke="none" x="0" y="4675">33 B=3, T=1</text><g stroke="black" stroke-linecap="round" stroke-width="0.25"><g fill="#84F8CF"><rect height="25" width="25" x="0" y="4875" /><rect height="25" width="25" x="0" y="4900" /></g><path d="M 0 4875 l 25 0 M 0 4925 l 25 0 M 0 4875 l 0 25 M 25 4875 l 0 25 M 0 4900 l 0 25 M 25 4900 l 0 25" stroke-width="3" /></g><text fill="black" font-family="Arial" font-size="15px" font-weight="bold" stroke="none" x="0" y="4825">21 B=2, T=1</text></svg>